<svg width="69" height="50" viewBox="0 0 69 50" fill="none" xmlns="http://www.w3.org/2000/svg">
<g clip-path="url(#clip0)">
<path d="M2.99029 25.2098C3.73762 23.6975 4.16029 22.3803 3.93436 22.2677C3.70844 22.1552 2.91945 23.2899 2.17213 24.8022C1.4248 26.3146 1.00212 27.6318 1.22805 27.7443C1.45398 27.8569 2.24296 26.7222 2.99029 25.2098Z" fill="#E0E0E0"/>
<path d="M40.9005 44.1142C41.6478 42.6019 42.1292 41.3139 41.9757 41.2374C41.8222 41.161 41.0919 42.3249 40.3446 43.8373C39.5973 45.3496 39.1159 46.6376 39.2694 46.714C39.4229 46.7905 40.1532 45.6265 40.9005 44.1142Z" fill="#E0E0E0"/>
<path d="M20.5286 36.4689L19.1201 35.3011L15.2432 40.0154L16.6517 41.1832L20.5286 36.4689Z" fill="#F55F44"/>
<path opacity="0.05" d="M17.2895 41.5593L19.2903 42.0316L20.6839 36.0802L18.6832 35.6079L17.2895 41.5593Z" fill="black"/>
<path d="M17.5121 41.6118L19.2903 42.0316L20.6839 36.0802L18.9057 35.6605L17.5121 41.6118Z" fill="#F55F44"/>
<path d="M4.00203 22.1308L1.1604 27.8812L39.2049 46.8345L42.0465 41.0841L4.00203 22.1308Z" fill="url(#paint0_linear)"/>
<path d="M39.2726 46.6976C38.5279 46.3389 0.682627 27.4726 1.22807 27.7443C3.32859 24.5252 3.93438 22.2677 3.93438 22.2677L41.9789 41.221C41.9789 41.221 40.6428 43.5753 39.2726 46.6976Z" fill="#F5F5F5"/>
<path opacity="0.05" d="M23.7066 32.118L20.5703 30.5555L17.864 36.0321L21.0003 37.5946L23.7066 32.118Z" fill="black"/>
<path d="M23.5703 32.05L20.7067 30.6234L18.0004 36.1L20.864 37.5266L23.5703 32.05Z" fill="#F55F44"/>
<path opacity="0.05" d="M23.0248 31.7783L21.1158 30.8273L18.4095 36.3039L20.3185 37.2549L23.0248 31.7783Z" fill="black"/>
<path d="M22.8885 31.7105L21.2521 30.8953L18.5458 36.3719L20.1821 37.1871L22.8885 31.7105Z" fill="#F55F44"/>
<path d="M22.6681 49.3739C22.8083 49.3739 22.9219 49.2598 22.9219 49.1191C22.9219 48.9783 22.8083 48.8643 22.6681 48.8643C22.5279 48.8643 22.4143 48.9783 22.4143 49.1191C22.4143 49.2598 22.5279 49.3739 22.6681 49.3739Z" fill="#DBDBDB"/>
<g opacity="0.5">
<path opacity="0.5" d="M2.81017 41.9833H2.54993V43.464H2.81017V41.9833Z" fill="#47E6B1"/>
<path opacity="0.5" d="M3.41742 42.8543V42.593H1.94268V42.8543H3.41742Z" fill="#47E6B1"/>
</g>
<g opacity="0.5">
<path opacity="0.5" d="M68.3928 23.5176H68.1325V24.9983H68.3928V23.5176Z" fill="#47E6B1"/>
<path opacity="0.5" d="M69 24.3886V24.1273H67.5253V24.3886H69Z" fill="#47E6B1"/>
</g>
<g opacity="0.5">
<path opacity="0.5" d="M4.3717 5.13904H4.11145V6.61978H4.3717V5.13904Z" fill="#47E6B1"/>
<path opacity="0.5" d="M4.97894 6.01009V5.74878H3.5042V6.01009H4.97894Z" fill="#47E6B1"/>
</g>
<g opacity="0.5">
<path opacity="0.5" d="M60.5854 2.87439H60.3251V4.35513H60.5854V2.87439Z" fill="#47E6B1"/>
<path opacity="0.5" d="M61.1926 3.74544V3.48413H59.7178V3.74544H61.1926Z" fill="#47E6B1"/>
</g>
<path opacity="0.5" d="M1.06614 22.0766C0.994423 22.0452 0.936693 21.9885 0.903941 21.9171C0.871189 21.8458 0.865702 21.7649 0.888524 21.6898C0.892217 21.6782 0.894543 21.6663 0.895455 21.6543C0.897542 21.6198 0.888532 21.5857 0.869759 21.5568C0.850987 21.5279 0.823451 21.5059 0.791229 21.4939C0.759007 21.482 0.723813 21.4808 0.690861 21.4905C0.657909 21.5002 0.628951 21.5203 0.608276 21.5479C0.601166 21.5577 0.595229 21.5682 0.590588 21.5794C0.559353 21.6514 0.502837 21.7094 0.431798 21.7423C0.360758 21.7751 0.280157 21.7807 0.205334 21.7577C0.193863 21.754 0.181996 21.7517 0.16998 21.7508C0.135699 21.7487 0.101658 21.7577 0.0728987 21.7766C0.0441394 21.7954 0.0221915 21.8231 0.0103053 21.8554C-0.00158089 21.8878 -0.00277262 21.9231 0.00690605 21.9562C0.0165847 21.9893 0.0366187 22.0184 0.0640419 22.0391C0.0737718 22.0463 0.0843067 22.0522 0.0954279 22.0569C0.167147 22.0882 0.224877 22.145 0.257629 22.2163C0.290381 22.2876 0.295868 22.3686 0.273046 22.4437C0.269353 22.4552 0.267026 22.4671 0.266114 22.4792C0.264027 22.5136 0.273038 22.5478 0.291811 22.5767C0.310583 22.6056 0.33812 22.6276 0.370341 22.6395C0.402563 22.6515 0.437757 22.6527 0.470709 22.6429C0.503661 22.6332 0.532619 22.6131 0.553294 22.5856C0.560404 22.5758 0.566341 22.5652 0.570983 22.5541C0.602217 22.482 0.658733 22.4241 0.729773 22.3912C0.800812 22.3583 0.881414 22.3528 0.956236 22.3757C0.967708 22.3794 0.979574 22.3818 0.991591 22.3827C1.02587 22.3848 1.05991 22.3757 1.08867 22.3569C1.11743 22.338 1.13938 22.3104 1.15127 22.278C1.16315 22.2457 1.16435 22.2103 1.15467 22.1773C1.14499 22.1442 1.12495 22.1151 1.09753 22.0943C1.0878 22.0872 1.07726 22.0812 1.06614 22.0766Z" fill="#4D8AF0"/>
<path opacity="0.5" d="M15.987 4.91751C15.9153 4.88615 15.8576 4.82941 15.8248 4.75808C15.7921 4.68675 15.7866 4.60582 15.8094 4.53069C15.8131 4.51918 15.8154 4.50726 15.8164 4.4952C15.8184 4.46078 15.8094 4.4266 15.7907 4.39772C15.7719 4.36884 15.7444 4.3468 15.7121 4.33487C15.6799 4.32293 15.6447 4.32174 15.6118 4.33146C15.5788 4.34117 15.5499 4.36129 15.5292 4.38883C15.5221 4.3986 15.5161 4.40917 15.5115 4.42034C15.4803 4.49235 15.4237 4.55032 15.3527 4.5832C15.2817 4.61609 15.2011 4.6216 15.1262 4.59868C15.1148 4.59497 15.1029 4.59264 15.0909 4.59172C15.0566 4.58963 15.0226 4.59867 14.9938 4.61752C14.965 4.63637 14.9431 4.66402 14.9312 4.69637C14.9193 4.72873 14.9181 4.76406 14.9278 4.79715C14.9375 4.83023 14.9575 4.85931 14.9849 4.88007C14.9947 4.88721 15.0052 4.89317 15.0163 4.89783C15.088 4.92919 15.1458 4.98594 15.1785 5.05727C15.2113 5.12859 15.2168 5.20952 15.1939 5.28465C15.1903 5.29617 15.1879 5.30808 15.187 5.32015C15.1849 5.35457 15.1939 5.38875 15.2127 5.41762C15.2315 5.4465 15.259 5.46854 15.2912 5.48047C15.3235 5.49241 15.3587 5.4936 15.3916 5.48389C15.4246 5.47417 15.4535 5.45405 15.4742 5.42652C15.4813 5.41675 15.4872 5.40617 15.4919 5.395C15.5231 5.32299 15.5796 5.26503 15.6507 5.23214C15.7217 5.19926 15.8023 5.19375 15.8771 5.21666C15.8886 5.22037 15.9005 5.22271 15.9125 5.22362C15.9468 5.22572 15.9808 5.21667 16.0096 5.19782C16.0383 5.17897 16.0603 5.15132 16.0722 5.11897C16.0841 5.08662 16.0852 5.05128 16.0756 5.0182C16.0659 4.98511 16.0459 4.95603 16.0184 4.93527C16.0087 4.92814 15.9982 4.92217 15.987 4.91751Z" fill="#4D8AF0"/>
<path opacity="0.5" d="M34.2044 49.4268C34.1327 49.3954 34.0749 49.3387 34.0422 49.2674C34.0094 49.196 34.0039 49.1151 34.0268 49.04C34.0305 49.0285 34.0328 49.0165 34.0337 49.0045C34.0358 48.9701 34.0268 48.9359 34.008 48.907C33.9892 48.8781 33.9617 48.8561 33.9295 48.8441C33.8973 48.8322 33.8621 48.831 33.8291 48.8407C33.7962 48.8505 33.7672 48.8706 33.7465 48.8981C33.7394 48.9079 33.7335 48.9185 33.7288 48.9296C33.6976 49.0016 33.6411 49.0596 33.57 49.0925C33.499 49.1254 33.4184 49.1309 33.3436 49.108C33.3321 49.1043 33.3202 49.1019 33.3082 49.101C33.2739 49.0989 33.2399 49.108 33.2111 49.1268C33.1824 49.1457 33.1604 49.1733 33.1485 49.2057C33.1367 49.238 33.1355 49.2733 33.1452 49.3064C33.1548 49.3395 33.1749 49.3686 33.2023 49.3893C33.212 49.3965 33.2226 49.4025 33.2337 49.4071C33.3054 49.4385 33.3631 49.4952 33.3959 49.5665C33.4286 49.6379 33.4341 49.7188 33.4113 49.7939C33.4076 49.8055 33.4053 49.8174 33.4044 49.8294C33.4023 49.8639 33.4113 49.898 33.4301 49.9269C33.4488 49.9558 33.4764 49.9778 33.5086 49.9898C33.5408 50.0017 33.576 50.0029 33.609 49.9932C33.6419 49.9835 33.6709 49.9633 33.6915 49.9358C33.6986 49.926 33.7046 49.9155 33.7092 49.9043C33.7405 49.8323 33.797 49.7743 33.868 49.7414C33.9391 49.7085 34.0197 49.703 34.0945 49.7259C34.1059 49.7297 34.1178 49.732 34.1298 49.7329C34.1641 49.735 34.1982 49.726 34.2269 49.7071C34.2557 49.6883 34.2776 49.6606 34.2895 49.6283C34.3014 49.5959 34.3026 49.5606 34.2929 49.5275C34.2832 49.4944 34.2632 49.4653 34.2358 49.4446C34.226 49.4374 34.2155 49.4315 34.2044 49.4268Z" fill="#4D8AF0"/>
<path opacity="0.5" d="M65.8771 39.196C66.1645 39.196 66.3976 38.962 66.3976 38.6734C66.3976 38.3847 66.1645 38.1508 65.8771 38.1508C65.5896 38.1508 65.3566 38.3847 65.3566 38.6734C65.3566 38.962 65.5896 39.196 65.8771 39.196Z" fill="#F55F44"/>
<path opacity="0.5" d="M54.4261 42.5059C54.7136 42.5059 54.9466 42.2719 54.9466 41.9833C54.9466 41.6947 54.7136 41.4607 54.4261 41.4607C54.1387 41.4607 53.9056 41.6947 53.9056 41.9833C53.9056 42.2719 54.1387 42.5059 54.4261 42.5059Z" fill="#4D8AF0"/>
<path opacity="0.5" d="M8.96941 47.645C9.25687 47.645 9.48991 47.411 9.48991 47.1223C9.48991 46.8337 9.25687 46.5997 8.96941 46.5997C8.68195 46.5997 8.44891 46.8337 8.44891 47.1223C8.44891 47.411 8.68195 47.645 8.96941 47.645Z" fill="#47E6B1"/>
<path opacity="0.5" d="M35.6882 1.04523C35.9757 1.04523 36.2087 0.811245 36.2087 0.522613C36.2087 0.233982 35.9757 0 35.6882 0C35.4008 0 35.1677 0.233982 35.1677 0.522613C35.1677 0.811245 35.4008 1.04523 35.6882 1.04523Z" fill="#F55F44"/>
<path d="M17.7745 31.139L15.6925 34.2747C15.6925 34.2747 16.3865 37.4975 31.7411 37.4104C47.0958 37.3233 48.3103 34.2747 48.3103 34.2747L45.4475 30.0938L36.6859 24.0837L17.7745 31.139Z" fill="#F9A826"/>
<path opacity="0.15" d="M17.7745 31.139L15.6925 34.2747C15.6925 34.2747 16.3865 37.4975 31.7411 37.4104C47.0958 37.3233 48.3103 34.2747 48.3103 34.2747L45.4475 30.0938L36.6859 24.0837L17.7745 31.139Z" fill="black"/>
<path d="M62.06 19.5109L34.734 31.6182L1.42218 19.5109L31.958 5.57458L46.9474 12.514L47.4844 12.7631L62.06 19.5109Z" fill="#F9A826"/>
<path opacity="0.15" d="M62.06 19.5109L34.734 31.6182L1.42218 19.5109L31.958 5.57458L46.9474 12.514L47.4844 12.7631L62.06 19.5109Z" fill="black"/>
<path d="M48.05 22.4132L47.5295 22.4446L46.9474 12.514L47.4844 12.7632L48.05 22.4132Z" fill="#F5F5F5"/>
<path d="M18.1215 19.4674L15.6925 34.2748C15.6925 34.2748 33.1291 28.6131 48.3103 34.2748L46.0548 18.5963C46.0548 18.5963 25.6687 16.0704 18.1215 19.4674Z" fill="#F9A826"/>
<path d="M48.0066 25.4338C49.396 25.4338 50.5224 24.6539 50.5224 23.6918C50.5224 22.7296 49.396 21.9497 48.0066 21.9497C46.6172 21.9497 45.4909 22.7296 45.4909 23.6918C45.4909 24.6539 46.6172 25.4338 48.0066 25.4338Z" fill="#F5F5F5"/>
</g>
<defs>
<linearGradient id="paint0_linear" x1="20.1827" y1="37.3579" x2="23.0428" y2="31.6167" gradientUnits="userSpaceOnUse">
<stop stop-color="#808080" stop-opacity="0.25"/>
<stop offset="0.53514" stop-color="#808080" stop-opacity="0.12"/>
<stop offset="1" stop-color="#808080" stop-opacity="0.1"/>
</linearGradient>
<clipPath id="clip0">
<rect width="69" height="50" fill="white"/>
</clipPath>
</defs>
</svg>
