<svg width="763" height="424" viewBox="0 0 763 424" fill="none" xmlns="http://www.w3.org/2000/svg">
<g id="teacher" clip-path="url(#clip0)">
<path id="Vector" opacity="0.1" d="M754.912 393.384C751.951 400.826 748.306 407.966 744.025 414.709C742.017 417.925 739.814 421.01 737.43 423.946C737.408 423.976 737.384 424.003 737.357 424.027H0L0.0995215 423.946C0.763 423.419 4.65762 420.21 10.7152 414.709C15.061 410.77 20.5148 405.648 26.6387 399.486C76.7246 349.314 172.936 230.559 92.8074 121.77C18.3186 20.6365 98.5199 2.28426 151.426 0.142268C171.752 -0.668718 192.031 2.70742 211.046 10.0684C235.488 19.5283 280.16 34.029 338.361 40.678C340.271 40.8942 342.196 41.1104 344.146 41.3064C374.959 44.5016 405.98 45.0757 436.887 43.0227C437.796 42.9686 438.712 42.9011 439.634 42.8335C470.209 40.647 500.551 35.8667 530.345 28.5423C532.276 28.0625 534.18 27.6098 536.077 27.1571C635.353 3.76406 726.874 83.4909 703.99 173.59C695.531 206.916 697.681 242.438 725.885 271.176C772.063 318.083 766.47 364.281 754.912 393.384Z" fill="#8378DE"/>
<path id="Vector_2" d="M754.912 393.384C751.951 400.826 748.306 407.966 744.025 414.709C742.017 417.924 739.814 421.009 737.43 423.946H0.0994873C0.762966 423.419 4.65759 420.209 10.7151 414.709C15.0609 410.77 20.5147 405.648 26.6386 399.485L104.352 383.133C105.356 382.922 106.379 382.816 107.404 382.816L190.252 382.694H190.339L231.375 382.64H231.468L266.101 382.599H288.772H311.994L407.15 382.464H407.303H414.674H427.625H443.794H448.093L464.435 382.275H469.836L517.367 382.207H532.547H539.846L594.749 382.133H611.097L663.1 382.059L706.996 382.005C708.218 382.005 709.437 382.153 710.625 382.444L754.912 393.384Z" fill="#49362B"/>
<path id="Vector_3" opacity="0.4" d="M10.7151 414.709H744.025C742.017 417.924 739.814 421.009 737.43 423.946H0.0994873C0.749696 423.385 4.64432 420.175 10.7151 414.709Z" fill="black"/>
<path id="Vector_4" d="M486.476 204.564L485.003 204.854L418.416 217.882C399.076 221.666 379.456 225.47 359.811 224.017C345.579 222.963 332.283 218.666 318.609 214.895C310.879 212.76 302.685 211.909 300.065 203.098C296.449 190.935 302.334 172.927 303.72 160.602C305.047 148.507 305.83 136.108 303.468 124.155C302.944 121.468 302.252 118.819 301.398 116.222C299.03 109.066 295.308 101.626 297.318 94.3626C298.904 88.5988 303.74 84.4838 308.265 80.6728C317.129 73.24 326.179 64.9085 329.696 53.7661C331.421 48.3604 331.746 42.5426 333.603 37.1774C337.127 26.9743 345.977 19.3455 355.823 15.3048C365.669 11.264 376.497 10.4059 387.12 10.4059C396.499 10.4064 405.868 11.0407 415.165 12.3046C425.303 13.6561 435.534 15.8791 444.444 21.001C453.355 26.1229 460.865 34.5152 462.942 44.7454C465.881 59.2123 457.72 74.6184 462.099 88.6664C464.302 95.7681 469.398 101.505 472.934 108.005C475.817 113.443 477.597 119.415 478.167 125.568C478.737 131.721 478.085 137.927 476.251 143.818C472.018 157.176 461.655 170.691 466.963 183.644C470.34 191.881 478.965 196.28 484.976 202.807C485.511 203.393 486.011 203.978 486.476 204.564Z" fill="#000000"/>
<path id="Vector_5" opacity="0.1" d="M485.003 202.861V204.854L418.416 217.882C399.076 221.666 379.456 225.47 359.811 224.017C345.579 222.963 332.283 218.666 318.609 214.895C310.879 212.76 302.685 211.909 300.065 203.098C296.449 190.935 302.334 172.927 303.72 160.602C305.047 148.507 325.476 104.35 323.114 92.3963L445.194 97.802C446.017 104.404 478.282 137.54 476.271 143.872C472.038 157.23 461.675 170.745 466.983 183.698C470.366 191.935 478.992 196.334 485.003 202.861Z" fill="black"/>
<path id="Vector_6" d="M360.269 169.427C360.992 173.61 361.377 178.211 359.28 181.86C356.487 186.752 350.396 188.313 344.949 189.421L326.04 193.273C324.753 193.536 323.386 193.834 322.424 194.732C321.289 195.766 320.905 197.401 320.739 198.942C319.976 205.915 322.397 212.787 324.607 219.429C329.072 232.883 332.821 246.62 338.467 259.6C344.113 272.581 351.862 284.973 362.923 293.649C373.983 302.325 388.619 306.947 402.161 303.555C413.957 300.602 423.631 292.122 431.971 283.128C438.851 275.696 445.287 267.587 448.624 257.945C450.926 251.323 451.676 244.268 452.399 237.282C453.518 226.569 454.637 215.857 455.756 205.145C456.281 200.118 456.626 194.462 453.421 190.604C452.014 188.908 450.104 187.779 448.153 186.732C440.895 182.806 433.251 179.563 426.497 174.833C419.743 170.103 413.752 163.589 411.702 155.507C410.474 150.656 410.693 145.372 408.603 140.851C406.268 135.783 401.305 132.351 395.997 130.844C390.689 129.337 385.089 129.54 379.622 130.168C374.155 130.797 353.083 132.405 350.821 138.682C349.607 142.061 354.642 149.311 355.837 152.636C357.802 158.087 359.286 163.707 360.269 169.427Z" fill="#8B4513"/>
<path id="Vector_7" opacity="0.1" d="M360.269 169.427C360.992 173.61 361.377 178.211 359.28 181.86C356.487 186.752 350.396 188.313 344.949 189.421L326.04 193.273C324.753 193.536 323.386 193.834 322.424 194.732C321.289 195.766 320.905 197.401 320.739 198.942C319.976 205.915 322.397 212.787 324.607 219.429C329.072 232.883 332.821 246.62 338.467 259.6C344.113 272.581 351.862 284.973 362.923 293.649C373.983 302.325 388.619 306.947 402.161 303.555C413.957 300.602 423.631 292.122 431.971 283.128C438.851 275.696 445.287 267.587 448.624 257.945C450.926 251.323 451.676 244.268 452.399 237.282C453.518 226.569 454.637 215.857 455.756 205.145C456.281 200.118 456.626 194.462 453.421 190.604C452.014 188.908 450.104 187.779 448.153 186.732C440.895 182.806 433.251 179.563 426.497 174.833C419.743 170.103 413.752 163.589 411.702 155.507C410.474 150.656 410.693 145.372 408.603 140.851C406.268 135.783 401.305 132.351 395.997 130.844C390.689 129.337 385.089 129.54 379.622 130.168C374.155 130.797 353.083 132.405 350.821 138.682C349.607 142.061 354.642 149.311 355.837 152.636C357.802 158.087 359.286 163.707 360.269 169.427Z" fill="black"/>
<path id="Vector_8" d="M405.777 242.904L416.863 218.997C422.058 207.794 427.366 196.023 426.816 183.651C426.709 181.191 426.683 178.117 428.806 177.002C429.728 176.618 430.732 176.488 431.719 176.623C443.39 177.231 454.908 179.604 465.894 183.664C468.024 184.448 470.207 185.353 471.7 187.083C473.193 188.813 473.796 191.138 474.307 193.367C476.048 200.907 477.317 208.551 478.109 216.254C480.099 235.322 479.111 254.559 478.109 273.689L475.163 332.09C475.179 332.919 475.014 333.74 474.679 334.496C473.949 335.847 472.304 336.3 470.824 336.557C465.125 337.55 459.299 337.347 453.527 337.124C412.922 335.557 372.105 333.151 331.766 338.165C331.947 332.088 331.852 326.007 331.48 319.921C329.881 293.642 323.194 268.006 316.625 242.545C312.797 227.68 309.088 211.463 315.252 197.455C316.158 195.243 317.461 193.222 319.093 191.496C321.714 188.881 325.29 187.502 328.833 186.516C334.944 184.823 341.275 184.093 347.603 184.353L389.435 277.108C391.346 281.351 392.918 285.818 394.823 290.007C396.534 282.77 394.478 274.29 396.534 266.445C398.75 258.303 402.24 250.512 405.777 242.904Z" fill="white"/>
<path id="Vector_9" d="M401.404 306.724C408.888 307.204 416.16 303.298 421.309 297.778C426.457 292.257 429.854 285.257 432.727 278.182C436.857 268.098 440.14 257.675 442.54 247.025C444.53 237.971 445.944 228.599 444.57 219.423C442.673 206.753 435.633 195.239 434.432 182.482C434.227 180.252 434.359 177.644 436.118 176.299C437.206 175.468 438.639 175.353 439.992 175.272C452.505 174.515 466.253 174.657 475.946 182.745C478.899 185.205 481.294 188.279 484.18 190.813C491.054 196.895 500.767 199.989 505.179 208.064C506.718 210.875 507.455 214.058 508.53 217.085C511.064 224.247 515.45 230.545 519.809 236.741C515.582 254.904 510.726 273.081 506.499 291.244C504.025 301.9 501.53 312.596 497.642 322.799C495.094 329.489 491.89 336.313 492.672 343.476C492.984 346.294 493.907 348.99 494.709 351.706C497.524 361.24 498.842 371.167 498.617 381.12L309.3 381.593C318.37 368.349 321.031 352.105 320.108 335.989C319.664 328.266 317.952 320.495 314.137 313.812C308.126 303.339 297.55 296.514 287.127 290.669C279.829 286.615 271.993 309.427 264.104 306.812C265.378 297.636 265.962 262.215 265.431 252.978C265.259 249.951 264.993 246.843 265.909 243.951C266.532 241.971 267.68 240.201 268.457 238.275C271.568 230.565 268.603 220.706 273.632 214.145C277.108 209.584 283.206 208.287 288.162 205.476C293.251 202.584 297.185 198.043 301.617 194.165C310.314 186.644 320.94 181.812 332.243 180.238C335.541 185.535 337.545 191.559 338.089 197.807C338.427 201.733 338.182 205.713 338.719 209.618C339.455 214.909 341.605 219.875 343.735 224.768C352.606 245.167 361.509 265.628 372.749 284.784C375.927 290.19 379.384 295.595 383.988 299.805C388.593 304.015 395.221 307.021 401.404 306.724Z" fill="#8378DE"/>
<path id="Vector_10" opacity="0.1" d="M401.404 306.724C408.888 307.204 416.16 303.298 421.309 297.778C426.457 292.257 429.854 285.257 432.727 278.182C436.857 268.098 440.14 257.675 442.54 247.025C444.53 237.971 445.944 228.599 444.57 219.423C442.673 206.753 435.633 195.239 434.432 182.482C434.227 180.252 434.359 177.644 436.118 176.299C437.206 175.468 438.639 175.353 439.992 175.272C452.505 174.515 466.253 174.657 475.946 182.745C478.899 185.205 481.294 188.279 484.18 190.813C491.054 196.895 500.767 199.989 505.179 208.064C506.718 210.875 507.455 214.058 508.53 217.085C511.064 224.247 515.45 230.545 519.809 236.741C515.582 254.904 510.726 273.081 506.499 291.244C504.025 301.9 501.53 312.596 497.642 322.799C495.094 329.489 491.89 336.313 492.672 343.476C492.984 346.294 493.907 348.99 494.709 351.706C497.524 361.24 498.842 371.167 498.617 381.12L309.3 381.593C318.37 368.349 321.031 352.105 320.108 335.989C319.664 328.266 317.952 320.495 314.137 313.812C308.126 303.339 297.55 296.514 287.127 290.669C279.829 286.615 271.993 309.427 264.104 306.812C265.378 297.636 265.962 262.215 265.431 252.978C265.259 249.951 264.993 246.843 265.909 243.951C266.532 241.971 267.68 240.201 268.457 238.275C271.568 230.565 268.603 220.706 273.632 214.145C277.108 209.584 283.206 208.287 288.162 205.476C293.251 202.584 297.185 198.043 301.617 194.165C310.314 186.644 320.94 181.812 332.243 180.238C335.541 185.535 337.545 191.559 338.089 197.807C338.427 201.733 338.182 205.713 338.719 209.618C339.455 214.909 341.605 219.875 343.735 224.768C352.606 245.167 361.509 265.628 372.749 284.784C375.927 290.19 379.384 295.595 383.988 299.805C388.593 304.015 395.221 307.021 401.404 306.724Z" fill="black"/>
<path id="Vector_11" d="M391.392 167.893C422.803 167.893 448.266 141.961 448.266 109.971C448.266 77.9822 422.803 52.0498 391.392 52.0498C359.982 52.0498 334.519 77.9822 334.519 109.971C334.519 141.961 359.982 167.893 391.392 167.893Z" fill="#8B4513"/>
<path id="Vector_12" d="M361.549 188.158C363.108 173.17 356.991 158.508 350.064 145.189C346.747 138.824 343.191 132.479 341.525 125.486C339.86 118.492 340.338 110.573 344.597 104.823C348.22 99.9304 353.966 97.2884 359.28 94.4166C374.281 86.3081 387.995 74.3886 394.59 58.4487C390.862 60.5164 391.83 66.6856 395.121 69.4087C398.412 72.1318 402.897 72.6588 406.944 73.9562C421.7 78.6861 430.551 93.6734 437.65 107.674C438.811 109.958 439.992 112.37 439.979 114.945C439.966 117.519 438.811 119.803 437.604 121.992C434.101 128.344 429.814 134.446 428.222 141.547C426.398 149.656 428.322 158.183 430.823 166.136C433.477 174.596 437 183.124 443.369 189.191C449.739 195.259 459.618 198.273 467.454 194.354C459.631 180.657 451.53 165.352 454.582 149.825C456.055 142.392 460.016 135.635 461.701 128.243C464.912 114.141 459.565 99.6331 454.317 86.173L438.632 46.0022C436.237 39.86 433.51 33.3056 428.016 29.8257C424.301 27.481 419.803 26.8729 415.45 26.4472C401.438 25.1768 386.921 25.5958 373.877 30.9068C350.111 40.5762 335.209 64.4152 323.386 87.5379C319.843 94.4639 316.346 101.822 316.492 109.634C316.572 113.918 317.746 118.087 318.702 122.263C322.59 139.263 322.802 156.879 323.001 174.333C323.154 187.725 322.47 200.347 316.718 212.544C324.6 214.139 336.032 218.443 343.834 215.294C354.005 211.199 360.269 198.584 361.549 188.158Z" fill="#000000"/>
<g id="Group" opacity="0.1">
<path id="Vector_13" opacity="0.1" d="M322.968 173.049C322.994 171.143 322.994 169.22 322.968 167.278C322.769 149.825 322.557 132.209 318.669 115.208C317.8 111.9 317.122 108.543 316.638 105.154C316.502 106.317 316.442 107.489 316.459 108.661C316.539 112.945 317.713 117.114 318.669 121.29C322.537 138.189 322.776 155.697 322.968 173.049Z" fill="#D2B48C"/>
<path id="Vector_14" opacity="0.1" d="M461.701 127.243C462.572 123.294 462.863 119.237 462.564 115.201C462.433 117.208 462.145 119.201 461.701 121.161C460.016 128.594 456.055 135.29 454.582 142.743C453.947 146.031 453.769 149.392 454.051 152.73C454.157 151.419 454.334 150.116 454.582 148.825C456.055 141.372 460.016 134.648 461.701 127.243Z" fill="#D2B48C"/>
<path id="Vector_15" opacity="0.1" d="M439.461 110.843C439.785 109.883 439.96 108.878 439.979 107.863C439.979 105.289 438.811 102.877 437.65 100.593C430.551 86.592 421.727 71.6183 406.944 66.8748C402.897 65.5775 398.419 65.0504 395.121 62.3273C394.273 61.583 393.578 60.6737 393.079 59.6527C392.58 58.6316 392.287 57.5193 392.215 56.3811C385.023 69.8277 372.669 80.1119 359.28 87.3353C353.972 90.207 348.22 92.849 344.597 97.7412C341.194 102.336 340.205 108.316 340.796 114.1C341.13 110.388 342.444 106.837 344.597 103.823C348.22 98.9304 353.966 96.2884 359.28 93.4166C372.669 86.1933 385.023 75.909 392.215 62.4624C392.287 63.6007 392.58 64.713 393.079 65.734C393.578 66.7551 394.273 67.6644 395.121 68.4087C398.439 71.1115 402.897 71.6588 406.944 72.9562C421.7 77.6861 430.551 92.6734 437.65 106.674C438.37 108.008 438.976 109.403 439.461 110.843Z" fill="#D2B48C"/>
<path id="Vector_16" opacity="0.1" d="M443.369 182.11C437 176.029 433.49 167.515 430.823 159.055C429.223 154.303 428.154 149.382 427.638 144.385C427.021 151.325 428.713 158.426 430.823 165.136C433.477 173.596 437 182.124 443.369 188.191C449.739 194.259 459.618 197.273 467.454 193.354C466.512 191.712 465.576 190.043 464.647 188.36C457.369 190.448 449.009 187.475 443.369 182.11Z" fill="#D2B48C"/>
<path id="Vector_17" opacity="0.1" d="M361.549 181.076C360.269 191.502 354.005 204.118 343.808 208.24C336.729 211.098 326.65 207.814 318.961 205.996C318.299 207.893 317.541 209.754 316.691 211.571C324.574 213.166 336.005 217.47 343.808 214.321C354.005 210.199 360.269 197.584 361.549 187.158C361.813 184.549 361.862 181.923 361.695 179.306C361.655 179.894 361.596 180.488 361.549 181.076Z" fill="#D2B48C"/>
</g>
<path id="Vector_18" d="M441.943 348.611C431.692 346.956 421.289 343.76 411.124 345.908C405.233 347.152 399.845 350.138 394.949 353.747C397.642 355.943 400.787 357.902 402.499 360.956C403.562 363.07 404.36 365.31 404.874 367.626C405.949 371.68 407.031 375.815 407.197 380.032C407.362 384.248 406.533 388.64 404.065 392.039C416.989 393.336 429.516 390.093 442.122 386.924C443.564 386.666 444.936 386.102 446.149 385.268C448.14 383.674 448.724 380.836 448.737 378.248C448.737 373.626 447.463 369.119 446.169 364.686C444.63 359.369 443.489 353.895 441.943 348.611Z" fill="white"/>
<path id="Vector_19" d="M511.157 234.64C516.246 235.315 520.193 239.498 523.099 243.795C531.254 255.755 534.77 270.256 538.685 284.264C543.55 301.683 549.272 318.828 555.849 335.698C557.265 339.595 558.987 343.368 560.997 346.983C562.636 349.773 564.627 352.456 565.35 355.625C567.101 363.288 560.898 370.491 554.429 374.761C550.981 377.128 547.216 378.976 543.249 380.248C539.388 381.424 535.361 381.87 531.36 382.316L494.53 386.37C477.578 388.248 460.474 390.127 443.515 388.316C442.447 384.532 444.544 381.856 444.391 377.917C444.285 375.099 443.064 372.477 441.976 369.883C439.97 365.261 438.644 360.364 438.042 355.348C437.849 353.503 437.783 351.611 437.093 349.895C436.403 348.179 434.923 346.638 433.112 346.517C443.064 345.51 450.621 343.598 460.573 342.584C464.269 342.206 468.11 341.78 471.262 339.78C475.17 337.3 477.359 332.827 479.098 328.489C483.404 317.745 486.177 305.907 483.914 294.528C482.057 285.196 476.875 276.506 476.902 266.986C476.902 261.317 478.799 255.823 481.042 250.634C483.417 245.147 486.515 239.538 491.73 236.755C496.945 233.971 505.272 233.829 511.157 234.64Z" fill="#8378DE"/>
<path id="Vector_20" opacity="0.08" d="M511.157 234.64C516.246 235.315 520.193 239.498 523.099 243.795C531.254 255.755 534.77 270.256 538.685 284.264C543.55 301.683 549.272 318.828 555.849 335.698C557.265 339.595 558.987 343.368 560.997 346.983C562.636 349.773 564.627 352.456 565.35 355.625C567.101 363.288 560.898 370.491 554.429 374.761C550.981 377.128 547.216 378.976 543.249 380.248C539.388 381.424 535.361 381.87 531.36 382.316L494.53 386.37C477.578 388.248 460.474 390.127 443.515 388.316C442.447 384.532 444.544 381.856 444.391 377.917C444.285 375.099 443.064 372.477 441.976 369.883C439.97 365.261 438.644 360.364 438.042 355.348C437.849 353.503 437.783 351.611 437.093 349.895C436.403 348.179 434.923 346.638 433.112 346.517C443.064 345.51 450.621 343.598 460.573 342.584C464.269 342.206 468.11 341.78 471.262 339.78C475.17 337.3 477.359 332.827 479.098 328.489C483.404 317.745 486.177 305.907 483.914 294.528C482.057 285.196 476.875 276.506 476.902 266.986C476.902 261.317 478.799 255.823 481.042 250.634C483.417 245.147 486.515 239.538 491.73 236.755C496.945 233.971 505.272 233.829 511.157 234.64Z" fill="black"/>
<path id="Vector_21" d="M280.525 225.862C282.934 220.038 285.382 214.024 285.448 207.706C285.521 200.874 282.794 194.388 280.711 187.901C278.135 179.964 276.419 171.764 275.596 163.447C275.425 162.65 275.543 161.817 275.927 161.102C276.478 160.312 277.54 160.15 278.475 159.94C283.066 158.872 286.536 155.095 289.403 151.291C293.849 145.416 297.604 139.029 300.589 132.263C302.785 127.283 305.757 121.208 311.118 121.161C308.96 131.486 306.285 141.691 303.103 151.737C308.71 150.277 314.038 148.156 319.644 146.696C320.741 146.343 321.891 146.188 323.041 146.237C326.398 146.595 328.455 151.223 326.504 154.028C329.244 157.298 333.803 158.176 337.385 160.42C340.968 162.663 343.542 168.217 340.358 171.035C339.734 171.583 338.945 171.968 338.493 172.67C336.954 175.089 340.723 177.867 340.411 180.732C340.159 183.076 337.206 184.171 334.97 183.549C332.734 182.928 330.989 181.225 328.999 179.975C327.009 178.725 324.408 177.948 322.477 179.245C321.959 185.603 321.402 192.083 318.702 197.874C317.713 199.989 316.446 201.969 315.65 204.165C314.888 206.56 314.416 209.04 314.243 211.551L311.835 233.977C300.343 236.322 290.04 232.815 280.525 225.862Z" fill="#8B4513"/>
<path id="Vector_22" d="M277.719 245.964L275.602 231.376C275.4 230.188 275.287 228.986 275.264 227.781C275.264 224.403 276.723 221.179 278.137 218.105C289.847 223.673 302.506 225.653 315.424 225.659C317.129 225.659 319.073 225.497 320.135 224.139C322.331 226.714 322.397 230.856 321.462 234.126C320.526 237.396 318.728 240.343 317.534 243.532C316.93 245.147 316.439 246.91 315.285 248.154C313.493 250.12 310.587 250.458 307.947 250.444C305.169 250.427 302.398 250.157 299.667 249.64C292.594 248.302 284.791 244.674 277.719 245.964Z" fill="white"/>
<path id="Vector_23" d="M321.395 245.37C312.306 244.316 303.276 242.829 294.306 240.91C289.907 239.971 285.468 238.924 280.983 239.106C278.064 239.228 274.925 239.822 272.358 238.349C274.859 247.019 275.012 256.154 272.019 264.661C270.248 269.729 267.548 274.452 266.247 279.669C263.54 290.581 267.256 302.481 263.872 313.197C263.514 314.598 262.811 315.882 261.828 316.927C260.793 317.894 259.38 318.394 258.425 319.441C257.018 320.982 256.932 323.299 256.925 325.401L256.866 344.016C256.826 355.868 256.978 368.437 263.122 378.478C270.129 389.965 284.878 395.918 297.716 392.424C301.129 391.535 304.327 389.941 307.111 387.742C311.569 384.133 314.409 378.917 317.189 373.835C320.506 367.754 323.824 361.538 324.892 354.693C325.648 349.848 325.224 344.902 324.68 340.03C321.681 313.001 315.172 286.203 316.572 259.073C316.782 254.114 318.463 249.335 321.395 245.37Z" fill="#8378DE"/>
<path id="Vector_24" d="M359.386 357.537C354.775 357.808 350.131 358.078 345.539 357.537C342.222 357.132 338.984 356.301 335.693 355.733C326.706 354.255 317.511 354.775 308.74 357.257C299.968 359.739 291.828 364.124 284.878 370.112C282.33 372.329 279.756 375.727 281.162 378.829C282.675 382.167 287.299 382.072 290.862 381.451C287.017 383.321 283.62 386.027 280.91 389.377C279.915 390.613 278.973 392.08 279.165 393.681C279.57 397.026 284.028 397.634 287.326 397.343C286.251 398.519 286.974 400.6 288.341 401.398C289.708 402.195 291.406 402.033 292.952 401.742C296.37 401.105 299.672 399.94 302.745 398.289C302.121 399.945 303.203 401.884 304.736 402.708C306.268 403.533 308.133 403.472 309.851 403.188C317.959 401.837 324.726 396.093 332.635 393.836C345.281 390.235 358.51 395.978 371.654 396.384C375.768 396.512 379.987 396.086 383.736 394.357C388.334 392.228 392.043 388.235 396.899 386.816C402.293 385.248 408.484 387.052 413.42 384.343C417.009 382.376 413.772 367.22 412.856 364.301C411.177 358.963 409.492 355.422 403.899 354.882C389.747 353.47 373.644 356.699 359.386 357.537Z" fill="#8B4513"/>
<path id="Vector_25" d="M394.69 353.402C394.69 353.402 416.114 371.869 403.753 392.019L427.638 383.62V365.99C427.638 365.153 418.569 352.564 418.569 352.564L407.853 350.882L394.69 353.402Z" fill="white"/>
<path id="Vector_26" d="M170.375 352.26H178.409C182.808 352.26 187.027 354.04 190.138 357.208C193.249 360.376 194.996 364.673 194.996 369.153V394.228H153.788V369.153C153.788 366.934 154.217 364.738 155.05 362.688C155.884 360.639 157.106 358.776 158.646 357.208C160.186 355.639 162.015 354.395 164.027 353.546C166.039 352.697 168.196 352.26 170.375 352.26Z" fill="#3F3D56"/>
<path id="Vector_27" opacity="0.1" d="M170.375 352.26H178.409C182.808 352.26 187.027 354.04 190.138 357.208C193.249 360.376 194.996 364.673 194.996 369.153V394.228H153.788V369.153C153.788 366.934 154.217 364.738 155.05 362.688C155.884 360.639 157.106 358.776 158.646 357.208C160.186 355.639 162.015 354.395 164.027 353.546C166.039 352.697 168.196 352.26 170.375 352.26Z" fill="black"/>
<path id="Vector_28" d="M172.743 361.49C174.564 361.49 176.041 359.987 176.041 358.132C176.041 356.277 174.564 354.774 172.743 354.774C170.922 354.774 169.446 356.277 169.446 358.132C169.446 359.987 170.922 361.49 172.743 361.49Z" fill="#3F3D56"/>
<path id="Vector_29" d="M172.743 357.294C174.564 357.294 176.041 355.791 176.041 353.936C176.041 352.081 174.564 350.578 172.743 350.578C170.922 350.578 169.446 352.081 169.446 353.936C169.446 355.791 170.922 357.294 172.743 357.294Z" fill="#3F3D56"/>
<path id="Vector_30" d="M172.743 353.098C174.564 353.098 176.041 351.594 176.041 349.74C176.041 347.885 174.564 346.381 172.743 346.381C170.922 346.381 169.446 347.885 169.446 349.74C169.446 351.594 170.922 353.098 172.743 353.098Z" fill="#3F3D56"/>
<path id="Vector_31" d="M172.743 348.902C174.564 348.902 176.041 347.398 176.041 345.544C176.041 343.689 174.564 342.185 172.743 342.185C170.922 342.185 169.446 343.689 169.446 345.544C169.446 347.398 170.922 348.902 172.743 348.902Z" fill="#3F3D56"/>
<path id="Vector_32" d="M172.743 344.706C174.564 344.706 176.041 343.202 176.041 341.347C176.041 339.493 174.564 337.989 172.743 337.989C170.922 337.989 169.446 339.493 169.446 341.347C169.446 343.202 170.922 344.706 172.743 344.706Z" fill="#3F3D56"/>
<path id="Vector_33" d="M172.743 340.51C174.564 340.51 176.041 339.006 176.041 337.151C176.041 335.297 174.564 333.793 172.743 333.793C170.922 333.793 169.446 335.297 169.446 337.151C169.446 339.006 170.922 340.51 172.743 340.51Z" fill="#3F3D56"/>
<path id="Vector_34" d="M172.743 336.307C174.564 336.307 176.041 334.803 176.041 332.948C176.041 331.094 174.564 329.59 172.743 329.59C170.922 329.59 169.446 331.094 169.446 332.948C169.446 334.803 170.922 336.307 172.743 336.307Z" fill="#3F3D56"/>
<path id="Vector_35" d="M177.693 337.989C179.514 337.989 180.99 336.486 180.99 334.631C180.99 332.776 179.514 331.273 177.693 331.273C175.872 331.273 174.395 332.776 174.395 334.631C174.395 336.486 175.872 337.989 177.693 337.989Z" fill="#3F3D56"/>
<path id="Vector_36" d="M180.99 336.307C182.811 336.307 184.288 334.803 184.288 332.948C184.288 331.094 182.811 329.59 180.99 329.59C179.169 329.59 177.693 331.094 177.693 332.948C177.693 334.803 179.169 336.307 180.99 336.307Z" fill="#3F3D56"/>
<path id="Vector_37" d="M184.288 334.631C186.109 334.631 187.585 333.127 187.585 331.273C187.585 329.418 186.109 327.914 184.288 327.914C182.467 327.914 180.99 329.418 180.99 331.273C180.99 333.127 182.467 334.631 184.288 334.631Z" fill="#3F3D56"/>
<path id="Vector_38" d="M172.743 332.11C174.564 332.11 176.041 330.607 176.041 328.752C176.041 326.897 174.564 325.394 172.743 325.394C170.922 325.394 169.446 326.897 169.446 328.752C169.446 330.607 170.922 332.11 172.743 332.11Z" fill="#3F3D56"/>
<path id="Vector_39" d="M172.743 327.914C174.564 327.914 176.041 326.411 176.041 324.556C176.041 322.701 174.564 321.198 172.743 321.198C170.922 321.198 169.446 322.701 169.446 324.556C169.446 326.411 170.922 327.914 172.743 327.914Z" fill="#3F3D56"/>
<path id="Vector_40" d="M172.743 323.718C174.564 323.718 176.041 322.215 176.041 320.36C176.041 318.505 174.564 317.002 172.743 317.002C170.922 317.002 169.446 318.505 169.446 320.36C169.446 322.215 170.922 323.718 172.743 323.718Z" fill="#3F3D56"/>
<path id="Vector_41" d="M172.743 319.522C174.564 319.522 176.041 318.018 176.041 316.164C176.041 314.309 174.564 312.805 172.743 312.805C170.922 312.805 169.446 314.309 169.446 316.164C169.446 318.018 170.922 319.522 172.743 319.522Z" fill="#3F3D56"/>
<path id="Vector_42" d="M186.437 305.332C185.615 305.454 184.792 305.542 183.969 305.596C184.734 304.916 185.444 304.175 186.092 303.379C185.636 301.968 184.964 300.639 184.102 299.44C183.285 299.908 182.381 300.197 181.448 300.291C180.632 300.413 179.809 300.501 178.987 300.562C180.068 299.663 181.076 298.312 182.138 297.183C179.76 294.988 176.713 293.691 173.507 293.511C170.302 293.331 167.134 294.279 164.533 296.194C161.932 298.11 160.056 300.878 159.22 304.035C158.384 307.191 158.639 310.544 159.941 313.532C161.244 316.52 163.515 318.962 166.375 320.447C169.234 321.933 172.508 322.373 175.648 321.693C178.788 321.013 181.603 319.255 183.621 316.713C185.64 314.171 186.74 311 186.736 307.731C186.736 306.909 186.665 306.088 186.524 305.278L186.437 305.332Z" fill="#8378DE"/>
<path id="Vector_43" d="M197.431 322.015C196.59 322.542 195.641 322.864 194.658 322.955C193.842 323.076 193.019 323.171 192.196 323.225C193.071 322.426 193.887 321.563 194.638 320.644C192.65 320.116 190.54 320.362 188.721 321.334C186.901 322.307 185.503 323.935 184.8 325.901C184.097 327.867 184.139 330.03 184.919 331.966C185.698 333.902 187.158 335.472 189.014 336.37C190.87 337.268 192.988 337.429 194.954 336.821C196.92 336.213 198.592 334.88 199.645 333.083C200.697 331.286 201.053 329.153 200.644 327.103C200.235 325.052 199.089 323.231 197.431 321.995V322.015Z" fill="#8378DE"/>
<path id="Vector_44" d="M167.8 337.989C169.621 337.989 171.098 336.486 171.098 334.631C171.098 332.776 169.621 331.273 167.8 331.273C165.979 331.273 164.503 332.776 164.503 334.631C164.503 336.486 165.979 337.989 167.8 337.989Z" fill="#3F3D56"/>
<path id="Vector_45" d="M164.503 336.307C166.324 336.307 167.8 334.803 167.8 332.948C167.8 331.094 166.324 329.59 164.503 329.59C162.682 329.59 161.205 331.094 161.205 332.948C161.205 334.803 162.682 336.307 164.503 336.307Z" fill="#3F3D56"/>
<path id="Vector_46" d="M161.205 334.631C163.026 334.631 164.503 333.127 164.503 331.273C164.503 329.418 163.026 327.914 161.205 327.914C159.384 327.914 157.908 329.418 157.908 331.273C157.908 333.127 159.384 334.631 161.205 334.631Z" fill="#3F3D56"/>
<path id="Vector_47" d="M148.062 322.015C148.903 322.542 149.852 322.864 150.835 322.955C151.651 323.076 152.474 323.171 153.297 323.225C152.421 322.428 151.604 321.565 150.855 320.644C152.843 320.116 154.953 320.362 156.772 321.334C158.592 322.307 159.99 323.935 160.693 325.901C161.396 327.867 161.354 330.03 160.574 331.966C159.795 333.902 158.335 335.472 156.479 336.37C154.623 337.268 152.505 337.429 150.539 336.821C148.573 336.213 146.901 334.88 145.849 333.083C144.796 331.286 144.44 329.153 144.849 327.103C145.259 325.052 146.404 323.231 148.062 321.995V322.015Z" fill="#8378DE"/>
<path id="Vector_48" d="M170.375 354.747H178.409C182.808 354.747 187.027 356.526 190.138 359.694C193.249 362.862 194.996 367.159 194.996 371.639V393.85C194.996 394.61 194.7 395.339 194.172 395.876C193.645 396.413 192.929 396.715 192.183 396.715H156.581C155.835 396.715 155.119 396.413 154.592 395.876C154.064 395.339 153.768 394.61 153.768 393.85V371.639C153.768 369.419 154.197 367.221 155.032 365.17C155.867 363.119 157.091 361.256 158.633 359.687C160.175 358.118 162.006 356.875 164.021 356.027C166.036 355.179 168.195 354.744 170.375 354.747Z" fill="#3F3D56"/>
<g id="Group_2" opacity="0.1">
<path id="Vector_49" opacity="0.1" d="M186.663 306.251C186.329 306.614 185.975 306.957 185.601 307.278C185.98 307.278 186.351 307.217 186.729 307.177C186.716 306.866 186.696 306.555 186.663 306.251Z" fill="black"/>
<path id="Vector_50" opacity="0.1" d="M180.652 302.237C181.481 302.183 182.297 302.096 183.12 301.974C183.858 301.879 184.579 301.679 185.263 301.379C184.927 300.704 184.541 300.055 184.109 299.44C183.696 299.696 183.249 299.889 182.782 300.014C182.131 300.812 181.419 301.555 180.652 302.237Z" fill="black"/>
<path id="Vector_51" opacity="0.1" d="M160.383 309.447C160.378 306.885 161.051 304.37 162.332 302.165C163.613 299.96 165.455 298.148 167.662 296.92C169.869 295.691 172.361 295.092 174.875 295.185C177.389 295.277 179.831 296.059 181.946 297.447L182.158 297.217C180.778 295.967 179.169 295.007 177.423 294.392C175.677 293.778 173.829 293.522 171.986 293.638C170.142 293.755 168.34 294.242 166.682 295.071C165.024 295.9 163.544 297.055 162.326 298.469C161.108 299.884 160.177 301.529 159.587 303.312C158.997 305.094 158.759 306.978 158.886 308.854C159.014 310.731 159.505 312.563 160.331 314.246C161.157 315.928 162.302 317.427 163.7 318.657C161.554 316.086 160.378 312.821 160.383 309.447Z" fill="black"/>
</g>
<g id="Group_3" opacity="0.1">
<path id="Vector_52" opacity="0.1" d="M192.196 324.901C193.019 324.847 193.842 324.759 194.658 324.637C195.642 324.544 196.591 324.22 197.431 323.691C198.363 324.39 199.14 325.28 199.711 326.305C200.283 327.329 200.636 328.465 200.749 329.637C200.781 329.343 200.796 329.048 200.795 328.752C200.801 327.44 200.504 326.144 199.928 324.971C199.352 323.797 198.512 322.777 197.478 321.995C196.637 322.522 195.688 322.843 194.704 322.934L194.041 323.022C193.475 323.696 192.858 324.324 192.196 324.901Z" fill="black"/>
<path id="Vector_53" opacity="0.1" d="M192.528 322.036C192.803 322.039 193.078 322.059 193.351 322.097C193.782 321.63 194.207 321.13 194.638 320.644C193.418 320.312 192.14 320.27 190.902 320.523C189.664 320.775 188.499 321.314 187.499 322.097C186.498 322.881 185.688 323.889 185.131 325.043C184.574 326.197 184.286 327.466 184.288 328.752C184.288 329.036 184.288 329.313 184.328 329.59C184.532 327.52 185.484 325.6 186.999 324.204C188.514 322.808 190.485 322.035 192.528 322.036Z" fill="black"/>
</g>
<g id="Group_4" opacity="0.1">
<path id="Vector_54" opacity="0.1" d="M153.297 324.901C152.474 324.847 151.651 324.759 150.835 324.637C149.851 324.544 148.902 324.22 148.062 323.691C147.13 324.39 146.353 325.28 145.782 326.305C145.21 327.329 144.857 328.465 144.744 329.637C144.712 329.343 144.697 329.048 144.698 328.752C144.692 327.44 144.989 326.144 145.565 324.971C146.141 323.797 146.981 322.777 148.015 321.995C148.856 322.522 149.805 322.843 150.789 322.934L151.452 323.022C152.015 323.699 152.632 324.328 153.297 324.901Z" fill="black"/>
<path id="Vector_55" opacity="0.1" d="M152.965 322.036C152.688 322.039 152.411 322.059 152.136 322.097C151.711 321.63 151.286 321.13 150.855 320.644C152.075 320.312 153.353 320.27 154.591 320.523C155.829 320.775 156.994 321.314 157.994 322.097C158.995 322.881 159.805 323.889 160.362 325.043C160.919 326.197 161.207 327.466 161.205 328.752C161.205 329.036 161.205 329.313 161.166 329.59C160.962 327.52 160.009 325.6 158.494 324.204C156.979 322.808 155.008 322.035 152.965 322.036Z" fill="black"/>
</g>
<path id="Vector_56" d="M130.606 404.837H65.7839C65.0536 404.837 64.3533 404.541 63.8369 404.016C63.3206 403.49 63.0305 402.776 63.0305 402.033V370.788C63.0303 370.315 63.1478 369.849 63.3719 369.435C63.596 369.02 63.9195 368.67 64.3122 368.417C64.705 368.164 65.1542 368.017 65.618 367.988C66.0818 367.96 66.5451 368.051 66.9649 368.254C85.5887 377.255 105.652 380.343 129.332 368.396C129.752 368.185 130.217 368.087 130.685 368.109C131.152 368.132 131.606 368.276 132.004 368.526C132.402 368.777 132.731 369.127 132.96 369.542C133.189 369.958 133.31 370.426 133.313 370.903V401.985C133.319 402.354 133.254 402.72 133.121 403.062C132.988 403.405 132.791 403.717 132.539 403.982C132.288 404.247 131.988 404.459 131.656 404.605C131.324 404.752 130.967 404.831 130.606 404.837Z" fill="#8378DE"/>
<path id="Vector_57" opacity="0.1" d="M130.606 404.837H65.7839C65.0536 404.837 64.3533 404.541 63.8369 404.016C63.3206 403.49 63.0305 402.776 63.0305 402.033V370.788C63.0303 370.315 63.1478 369.849 63.3719 369.435C63.596 369.02 63.9195 368.67 64.3122 368.417C64.705 368.164 65.1542 368.017 65.618 367.988C66.0818 367.96 66.5451 368.051 66.9649 368.254C85.5887 377.255 105.652 380.343 129.332 368.396C129.752 368.185 130.217 368.087 130.685 368.109C131.152 368.132 131.606 368.276 132.004 368.526C132.402 368.777 132.731 369.127 132.96 369.542C133.189 369.958 133.31 370.426 133.313 370.903V401.985C133.319 402.354 133.254 402.72 133.121 403.062C132.988 403.405 132.791 403.717 132.539 403.982C132.288 404.247 131.988 404.459 131.656 404.605C131.324 404.752 130.967 404.831 130.606 404.837Z" fill="black"/>
<path id="Vector_58" d="M97.7436 381.086C99.8616 381.086 101.579 378.796 101.579 375.971C101.579 373.146 99.8616 370.856 97.7436 370.856C95.6256 370.856 93.9087 373.146 93.9087 375.971C93.9087 378.796 95.6256 381.086 97.7436 381.086Z" fill="#3F3D56"/>
<path id="Vector_59" d="M97.7436 374.835C99.8616 374.835 101.579 372.545 101.579 369.72C101.579 366.895 99.8616 364.605 97.7436 364.605C95.6256 364.605 93.9087 366.895 93.9087 369.72C93.9087 372.545 95.6256 374.835 97.7436 374.835Z" fill="#3F3D56"/>
<path id="Vector_60" d="M97.7436 368.578C99.8616 368.578 101.579 366.288 101.579 363.463C101.579 360.638 99.8616 358.348 97.7436 358.348C95.6256 358.348 93.9087 360.638 93.9087 363.463C93.9087 366.288 95.6256 368.578 97.7436 368.578Z" fill="#3F3D56"/>
<path id="Vector_61" d="M97.7436 362.328C99.8616 362.328 101.579 360.038 101.579 357.213C101.579 354.388 99.8616 352.098 97.7436 352.098C95.6256 352.098 93.9087 354.388 93.9087 357.213C93.9087 360.038 95.6256 362.328 97.7436 362.328Z" fill="#3F3D56"/>
<path id="Vector_62" d="M97.7436 356.071C99.8616 356.071 101.579 353.781 101.579 350.956C101.579 348.131 99.8616 345.841 97.7436 345.841C95.6256 345.841 93.9087 348.131 93.9087 350.956C93.9087 353.781 95.6256 356.071 97.7436 356.071Z" fill="#3F3D56"/>
<path id="Vector_63" d="M97.7436 349.814C99.8616 349.814 101.579 347.524 101.579 344.699C101.579 341.874 99.8616 339.584 97.7436 339.584C95.6256 339.584 93.9087 341.874 93.9087 344.699C93.9087 347.524 95.6256 349.814 97.7436 349.814Z" fill="#3F3D56"/>
<path id="Vector_64" d="M97.7436 343.564C99.8616 343.564 101.579 341.274 101.579 338.449C101.579 335.624 99.8616 333.333 97.7436 333.333C95.6256 333.333 93.9087 335.624 93.9087 338.449C93.9087 341.274 95.6256 343.564 97.7436 343.564Z" fill="#3F3D56"/>
<path id="Vector_65" d="M112.128 295.649C112.649 294.968 113.125 294.252 113.554 293.507L103.469 291.818L114.377 291.899C115.429 289.577 116.003 287.06 116.064 284.503C116.124 281.947 115.67 279.404 114.729 277.033L100.099 284.764L113.594 274.628C112.33 272.402 110.63 270.466 108.6 268.939C106.569 267.411 104.251 266.326 101.791 265.751C99.3306 265.176 96.7803 265.123 94.299 265.596C91.8177 266.068 89.4585 267.056 87.3685 268.498C85.2784 269.94 83.5023 271.804 82.1507 273.976C80.7991 276.147 79.9011 278.578 79.5125 281.119C79.1239 283.659 79.2532 286.253 79.8922 288.74C80.5312 291.228 81.6663 293.554 83.2267 295.575C82.4068 296.63 81.7037 297.775 81.1301 298.987L94.2139 305.988L80.2809 301.19C79.3043 304.139 79.064 307.289 79.5818 310.356C80.0996 313.423 81.3591 316.311 83.2466 318.758C81.1136 321.52 79.7867 324.838 79.4177 328.331C79.0486 331.825 79.6523 335.354 81.1597 338.515C82.6671 341.675 85.0174 344.34 87.9419 346.205C90.8664 348.069 94.247 349.058 97.6972 349.058C101.147 349.058 104.528 348.069 107.452 346.205C110.377 344.34 112.727 341.675 114.235 338.515C115.742 335.354 116.346 331.825 115.977 328.331C115.608 324.838 114.281 321.52 112.148 318.758C114.696 315.458 116.082 311.382 116.082 307.184C116.082 302.985 114.696 298.909 112.148 295.609L112.128 295.649Z" fill="#8378DE"/>
<path id="Vector_66" opacity="0.1" d="M79.279 307.224C79.273 311.424 80.6593 315.502 83.2134 318.799C81.0804 321.561 79.7535 324.878 79.3845 328.372C79.0154 331.866 79.6191 335.395 81.1265 338.555C82.634 341.716 84.9843 344.381 87.9087 346.245C90.8332 348.11 94.2138 349.099 97.664 349.099C101.114 349.099 104.495 348.11 107.419 346.245C110.344 344.381 112.694 341.716 114.201 338.555C115.709 335.395 116.313 331.866 115.943 328.372C115.574 324.878 114.248 321.561 112.115 318.799C114.576 315.616 79.279 305.123 79.279 307.224Z" fill="black"/>
<path id="Vector_67" d="M130.606 406.492H65.7839C65.0536 406.492 64.3533 406.197 63.8369 405.671C63.3206 405.145 63.0305 404.432 63.0305 403.688V370.788C63.0303 370.315 63.1478 369.849 63.3719 369.435C63.596 369.02 63.9195 368.67 64.3122 368.417C64.705 368.164 65.1542 368.017 65.618 367.988C66.0818 367.96 66.5451 368.051 66.9649 368.254C85.5887 377.255 100.358 387.748 129.332 368.396C131.05 367.247 133.313 368.815 133.313 370.903V403.675C133.316 404.413 133.034 405.122 132.527 405.65C132.021 406.177 131.33 406.48 130.606 406.492Z" fill="#B07473"/>
<path id="Vector_68" d="M611.614 397.188L515.98 410.074L511.197 410.716L464.441 385.282V379.329L610.553 363.098L611.614 397.188Z" fill="#D8D5D5"/>
<path id="Vector_69" d="M491.538 387.985L595.14 375.545L594.078 395.026L513.38 401.053L491.538 387.985Z" fill="#939498"/>
<path id="Vector_70" opacity="0.4" d="M515.98 403.675V410.067L511.197 410.743L464.435 385.282V379.329L509.067 403.654C509.067 403.654 514.919 404.215 515.98 403.675Z" fill="black"/>
<path id="Vector_71" d="M534.339 302.217L512.869 403.607C512.652 404.622 512.679 405.675 512.946 406.678C513.214 407.68 513.714 408.602 514.405 409.366C515.096 410.13 515.957 410.714 516.916 411.067C517.875 411.421 518.904 411.534 519.915 411.398L655.749 393.086C656.932 392.927 658.047 392.433 658.967 391.658C659.887 390.884 660.575 389.861 660.95 388.708L690.256 298.704C690.58 297.705 690.661 296.641 690.491 295.604C690.321 294.566 689.906 293.586 689.282 292.749C688.658 291.911 687.843 291.24 686.908 290.794C685.973 290.348 684.945 290.141 683.913 290.19L540.257 297.136C538.86 297.203 537.523 297.737 536.453 298.656C535.383 299.574 534.64 300.826 534.339 302.217Z" fill="#D8D5D5"/>
<path id="Vector_72" d="M608.977 339.622C609.31 336.393 607.929 333.599 605.892 333.381C603.855 333.162 601.933 335.603 601.6 338.832C601.267 342.061 602.648 344.855 604.685 345.073C606.722 345.292 608.644 342.851 608.977 339.622Z" fill="white"/>
</g>
<defs>
<clipPath id="clip0">
<rect width="763" height="424" fill="white"/>
</clipPath>
</defs>
</svg>
